#!OML:ASF E:\inclinewalkrobotboard\Project 1\Capture day 1\Session 1\subject1.ASF
:FULLY-SPECIFIED
:DEGREES
349
root 8.70747 16.4036 5.21576 -177.452 -8.25523 181.284
lowerback -3.07926 0.449692 -8.72636
upperback 1.84842 0.925501 2.06981
thorax 3.49843 0.217826 7.1465
lowerneck -10.0643 4.62539 -0.280137
upperneck 18.4127 5.41608 2.56606
head 7.21356 2.6018 1.34374
rclavicle 1.32192e-014 1.14301e-014
rhumerus -52.654 -32.3548 -59.2407
rradius 26.3091
rwrist 21.8628
rhand -12.2352 -43.944
rfingers 7.12502
rthumb 13.8303 -73.4642
lclavicle 1.32192e-014 1.14301e-014
lhumerus -24.0758 -5.25903 89.7994
lradius 23.1051
lwrist -20.1697
lhand -28.5106 -19.8585
lfingers 7.12502
lthumb -1.87909 10.113
rfemur -26.725 0.442898 8.19309
rtibia 27.0291
rfoot 0.0728709 -11.5465
rtoes -22.8555
lfemur -5.94081 -7.59301 -24.6587
ltibia 22.2129
lfoot -19.6118 2.22391
ltoes -55.1691
350
root 8.70028 16.4155 5.28166 -177.276 -7.90494 181.534
lowerback -3.19048 0.477544 -8.6617
upperback 1.78316 0.966928 2.13171
thorax 3.48473 0.24301 7.17919
lowerneck -10.0131 4.50805 -0.553475
upperneck 18.3826 5.25024 2.82257
head 7.1811 2.52481 1.45383
rclavicle 1.50952e-014 8.44835e-015
rhumerus -52.1521 -31.9408 -59.7499
rradius 26.5045
rwrist 21.5947
rhand -12.8905 -43.5683
rfingers 7.12502
rthumb 13.1988 -73.1305
lclavicle 1.50952e-014 8.44835e-015
lhumerus -23.9524 -4.85961 89.7419
lradius 22.8747
lwrist -20.43
lhand -28.5897 -20.1082
lfingers 7.12502
lthumb -1.95543 9.86262
rfemur -26.7213 0.559684 8.62455
rtibia 27.9384
rfoot -0.846445 -11.1502
rtoes -22.8171
lfemur -6.37124 -7.41465 -24.3276
ltibia 22.1015
lfoot -19.3716 2.49156
ltoes -55.3431
351
root 8.69322 16.4266 5.34472 -177.158 -7.5614 181.527
lowerback -3.19734 0.541303 -8.78741
upperback 1.71557 1.05952 2.08866
thorax 3.39948 0.294315 7.2095
lowerneck -9.9627 4.46865 -0.754428
upperneck 18.367 5.18062 3.06747
head 7.15482 2.49773 1.55731
rclavicle -1.09456e-014 -5.96354e-016
rhumerus -51.8809 -31.6561 -60.1289
rradius 26.6613
rwrist 21.5988
rhand -13.5833 -43.2179
rfingers 7.12502
rthumb 12.5309 -72.8221
lclavicle -1.09456e-014 -5.96354e-016
lhumerus -23.9521 -4.51109 89.7013
lradius 22.6704
lwrist -20.7166
lhand -28.8426 -20.7458
lfingers 7.12502
lthumb -2.19968 9.22261
rfemur -26.6208 0.447078 8.80124
rtibia 28.9857
rfoot -1.63077 -10.6074
rtoes -23.3399
lfemur -6.66392 -7.34446 -24.3411
ltibia 22.0088
lfoot -19.2132 2.59499
ltoes -54.9327
352
root 8.68765 16.4367 5.3994 -177.127 -7.17123 181.576
lowerback -3.16949 0.59354 -8.81442
upperback 1.70133 1.12953 2.03724
thorax 3.35595 0.332168 7.17283
lowerneck -9.98846 4.54972 -0.681084
upperneck 18.3115 5.28155 3.08022
head 7.14114 2.55444 1.55801
rclavicle 1.76421e-015 2.04748e-014
rhumerus -51.5466 -31.3147 -60.6752
rradius 26.92
rwrist 21.5469
rhand -14.011 -43.259
rfingers 7.12502
rthumb 12.1185 -72.888
lclavicle 1.76421e-015 2.04748e-014
lhumerus -24.062 -4.46175 89.6333
lradius 22.6997
lwrist -20.649
lhand -28.944 -20.8644
lfingers 7.12502
lthumb -2.29761 9.10299
rfemur -26.4065 0.273364 9.10365
rtibia 30.089
rfoot -2.3748 -10.0812
rtoes -25.3089
lfemur -6.76236 -7.18282 -24.2872
ltibia 21.7514
lfoot -18.9367 2.61763
ltoes -54.3692
353
root 8.68346 16.4459 5.45123 -177.086 -6.76333 181.768
lowerback -3.18949 0.620459 -8.74067
upperback 1.67806 1.16295 2.05242
thorax 3.33708 0.352361 7.14855
lowerneck -9.94106 4.67563 -0.469445
upperneck 18.2161 5.45458 2.91468
head 7.11026 2.63944 1.48245
rclavicle 2.15681e-014 6.55989e-015
rhumerus -51.0735 -30.9143 -61.2489
rradius 27.1896
rwrist 21.2061
rhand -14.4589 -42.8179
rfingers 7.12502
rthumb 11.6866 -72.472
lclavicle 2.15681e-014 6.55989e-015
lhumerus -24.2381 -4.50228 89.5735
lradius 22.8047
lwrist -20.4735
lhand -28.8535 -20.4838
lfingers 7.12502
lthumb -2.21022 9.48454
rfemur -26.1926 0.160229 9.57463
rtibia 31.1515
rfoot -3.08852 -9.97755
rtoes -26.8588
lfemur -6.82874 -6.93966 -24.0307
ltibia 21.3782
lfoot -18.6137 2.61941
ltoes -53.7419
354
root 8.67736 16.4543 5.50155 -177.026 -6.40169 181.872
lowerback -3.23554 0.655628 -8.72649
upperback 1.63912 1.21267 2.06036
thorax 3.3129 0.380435 7.15195
lowerneck -9.82441 4.83058 -0.411297
upperneck 18.0677 5.66941 2.89121
head 7.04016 2.74725 1.47788
rclavicle 6.60959e-015 -3.33958e-014
rhumerus -50.6904 -30.5816 -61.6724
rradius 27.4415
rwrist 20.7814
rhand -14.881 -42.2853
rfingers 7.12502
rthumb 11.2795 -71.962
lclavicle 6.60959e-015 -3.33958e-014
lhumerus -24.3089 -4.24723 89.538
lradius 22.6105
lwrist -20.682
lhand -28.7953 -20.2529
lfingers 7.12502
lthumb -2.15402 9.71593
rfemur -25.9165 -0.0682973 9.9201
rtibia 32.1767
rfoot -3.71004 -10.1252
rtoes -27.0838
lfemur -6.86149 -6.71377 -23.8882
ltibia 20.9409
lfoot -18.3247 2.68664
ltoes -53.3113
